# xmcd
#
# Track frame offsets:
#	150
#	21051
#	45599
#	61715
#	82066
#	109703
#	137654
#	163153
#	189627
#	217003
#	234951
#	264769
#	297627
#	326790
#
# Disc length: 4772 seconds
#
# Revision: 0
# Processed by: cddbd v1.5.2PL0 Copyright (c) Steve Scherf et al.
# Submitted via: EasyCDDAExtractor 10.0.2.1
#
DISCID=c812a20e
DTITLE=Various Artist - Steppin' Music Vol. 5
DYEAR=2007
DGENRE=R&B
TTITLE0=D.J. Quik - Tha Divorce Song
TTITLE1=John Legend - Another Again
TTITLE2=Fantasia - When I See You
TTITLE3=Anthony Hamilton - Why
TTITLE4=David Hollister - Call On Me
TTITLE5=Joe - Ghetto
TTITLE6=The O'Jays - Latin lover
TTITLE7=Freddie Jackson - Special Lady
TTITLE8=Eric Benet' - That's Just My Way
TTITLE9=Terry Burris w/Roy Ayers - Share My Dream
TTITLE10=Janet Jackson - Days Go By
TTITLE11=Donnie - Cloud 9
TTITLE12=Pebbles - You
TTITLE13=track artist 14 - In My Life
EXTD=
EXTT0=
EXTT1=
EXTT2=
EXTT3=
EXTT4=
EXTT5=
EXTT6=
EXTT7=
EXTT8=
EXTT9=
EXTT10=
EXTT11=
EXTT12=
EXTT13=
PLAYORDER=
